<svg width="14" height="12" viewBox="0 0 14 12" version="1.1" xmlns="http://www.w3.org/2000/svg" xmlns:xlink="http://www.w3.org/1999/xlink" xmlns:figma="http://www.figma.com/figma/ns">
<title>download</title>
<desc>Created using Figma</desc>
<g id="Canvas" transform="translate(-5 -191)" figma:type="canvas">
<g id="download" figma:type="frame">
<g id="Group" figma:type="frame">
<g id="Group" figma:type="frame">
<g id="Vector" figma:type="vector">
<use xlink:href="#path0_fill" transform="translate(5 198.549)" fill="#FFFFFF"/>
</g>
<g id="Vector" figma:type="vector">
<use xlink:href="#path1_fill" transform="translate(8.26703 191)" fill="#FFFFFF"/>
</g>
</g>
</g>
</g>
</g>
<defs>
<path id="path0_fill" d="M 14 0.505966C 14 0.22649 13.7615 6.97533e-08 13.4667 6.97533e-08C 13.1717 6.97533e-08 12.9332 0.22649 12.9332 0.505966L 12.9332 3.4389L 1.06698 3.4389L 1.06698 0.505966C 1.06698 0.22649 0.828489 6.97533e-08 0.533273 6.97533e-08C 0.238495 6.97533e-08 2.08858e-10 0.22649 2.08858e-10 0.505966L 2.08858e-10 3.73396C 2.08858e-10 3.77136 0.0146732 3.80419 0.0225573 3.83931C 0.0148922 3.87443 2.08858e-10 3.90747 2.08858e-10 3.94466C 2.08858e-10 4.22414 0.238495 4.45083 0.533273 4.45083L 13.4667 4.45083C 13.7615 4.45083 14 4.22414 14 3.94466C 14 3.90747 13.986 3.87443 13.9777 3.83931C 13.986 3.80419 14 3.77136 14 3.73417L 14 0.505966Z"/>
<path id="path1_fill" d="M 3.76647 1.5853e-09C 3.47169 1.5853e-09 3.23276 0.226697 3.23276 0.506173L 3.23276 7.89846L 0.910232 5.69445C 0.70196 5.49684 0.364476 5.49684 0.156204 5.69445C -0.052068 5.89205 -0.052068 6.21246 0.156204 6.41007L 3.38957 9.47786C 3.49359 9.57677 3.63025 9.62602 3.76669 9.62602C 3.90291 9.62602 4.03935 9.57656 4.14381 9.47786L 7.37718 6.41007C 7.58545 6.21246 7.58545 5.89205 7.37718 5.69445C 7.16869 5.49684 6.8312 5.49684 6.62315 5.69445L 4.29974 7.89846L 4.29974 0.506173C 4.29974 0.226697 4.06125 1.5853e-09 3.76647 1.5853e-09Z"/>
</defs>
</svg>
